<?xml version="1.0" encoding="UTF-8" standalone="no"?>
<!-- Generator: Adobe Illustrator 19.0.0, SVG Export Plug-In . SVG Version: 6.00 Build 0)  -->

<svg
   xmlns:svg="http://www.w3.org/2000/svg"
   xmlns="http://www.w3.org/2000/svg"
   version="1.1"
   id="Ebene_1"
   x="0px"
   y="0px"
   viewBox="60 -3 108.46476 108.46248"
   xml:space="preserve"
   width="108.46476"
   height="108.46248"><metadata
   id="metadata102"></metadata><defs
   id="defs100" /><style
   type="text/css"
   id="style2">
	.st0{display:none;}
	.st1{display:inline;}
	.st2{fill:#808080;}
	.st3{fill:#404040;}
	.st4{fill:#FFFFFF;}
</style>
<g
   id="Layer_1"
   class="st0"
   style="display:none"
   transform="translate(-55.767622,1.2312377)">
	<g
   class="st1"
   id="g42"
   style="display:inline">
		<path
   class="st2"
   d="M 194.7,100.9 H 193 L 190,91 c -0.1,-0.4 -0.3,-1 -0.5,-1.7 -0.2,-0.7 -0.3,-1.1 -0.3,-1.2 -0.1,0.9 -0.4,1.9 -0.7,2.9 l -2.9,9.8 H 184 L 180.1,86 h 1.8 l 2.3,9.1 c 0.3,1.3 0.6,2.4 0.7,3.5 0.2,-1.2 0.5,-2.4 0.8,-3.6 l 2.6,-9 h 1.8 l 2.8,9.1 c 0.3,1 0.6,2.2 0.8,3.5 0.1,-1 0.4,-2.1 0.7,-3.5 l 2.3,-9.1 h 1.8 z"
   id="path4"
   style="fill:#808080" />
		<path
   class="st2"
   d="m 200.6,86.8 c 0,-0.4 0.1,-0.7 0.3,-0.8 0.2,-0.2 0.4,-0.3 0.7,-0.3 0.3,0 0.5,0.1 0.7,0.3 0.2,0.2 0.3,0.5 0.3,0.8 0,0.3 -0.1,0.7 -0.3,0.8 -0.2,0.2 -0.4,0.3 -0.7,0.3 -0.3,0 -0.5,-0.1 -0.7,-0.3 -0.2,-0.1 -0.3,-0.4 -0.3,-0.8 z m 1.8,14.1 h -1.7 V 89.8 h 1.7 z"
   id="path6"
   style="fill:#808080" />
		<path
   class="st2"
   d="m 207.6,95.2 c 0.3,-0.4 0.7,-0.9 1.3,-1.6 l 3.6,-3.8 h 2 l -4.5,4.7 4.8,6.3 h -2 l -3.9,-5.2 -1.3,1.1 v 4.1 h -1.7 V 85.2 h 1.7 v 8.3 c 0,0.4 0,0.9 0,1.7 -0.1,0 0,0 0,0 z"
   id="path8"
   style="fill:#808080" />
		<path
   class="st2"
   d="m 216.6,86.8 c 0,-0.4 0.1,-0.7 0.3,-0.8 0.2,-0.2 0.4,-0.3 0.7,-0.3 0.3,0 0.5,0.1 0.7,0.3 0.2,0.2 0.3,0.5 0.3,0.8 0,0.3 -0.1,0.7 -0.3,0.8 -0.2,0.2 -0.4,0.3 -0.7,0.3 -0.3,0 -0.5,-0.1 -0.7,-0.3 -0.2,-0.1 -0.3,-0.4 -0.3,-0.8 z m 1.9,14.1 h -1.7 V 89.8 h 1.7 z"
   id="path10"
   style="fill:#808080" />
		<path
   class="st2"
   d="m 236.1,100.9 v -7.2 c 0,-0.9 -0.2,-1.5 -0.6,-2 -0.4,-0.5 -1,-0.7 -1.8,-0.7 -1,0 -1.8,0.3 -2.3,0.9 -0.5,0.6 -0.7,1.5 -0.7,2.8 v 6.2 H 229 v -7.2 c 0,-0.9 -0.2,-1.5 -0.6,-2 -0.4,-0.5 -1,-0.7 -1.8,-0.7 -1,0 -1.8,0.3 -2.3,0.9 -0.5,0.6 -0.7,1.7 -0.7,3.1 v 5.8 H 222 v -11 h 1.4 l 0.3,1.5 h 0.1 c 0.3,-0.5 0.8,-1 1.3,-1.3 0.5,-0.3 1.2,-0.5 1.9,-0.5 1.7,0 2.9,0.6 3.4,1.9 h 0.1 c 0.3,-0.6 0.8,-1 1.4,-1.4 0.6,-0.3 1.3,-0.5 2.1,-0.5 1.3,0 2.2,0.3 2.8,1 0.6,0.6 0.9,1.7 0.9,3.1 v 7.2 h -1.6 z"
   id="path12"
   style="fill:#808080" />
		<path
   class="st2"
   d="m 245.9,101.1 c -1.6,0 -2.9,-0.5 -3.9,-1.5 -0.9,-1 -1.4,-2.4 -1.4,-4.1 0,-1.8 0.4,-3.2 1.3,-4.2 0.9,-1.1 2.1,-1.6 3.5,-1.6 1.4,0 2.5,0.5 3.3,1.4 0.8,0.9 1.2,2.1 1.2,3.6 v 1.1 h -7.6 c 0,1.3 0.4,2.3 1,3 0.6,0.7 1.5,1 2.6,1 1.2,0 2.4,-0.2 3.5,-0.7 v 1.5 c -0.6,0.3 -1.2,0.4 -1.7,0.6 -0.5,0.2 -1,-0.1 -1.8,-0.1 z M 245.5,91 c -0.9,0 -1.6,0.3 -2.1,0.9 -0.5,0.6 -0.8,1.4 -0.9,2.4 h 5.8 c 0,-1.1 -0.2,-1.9 -0.7,-2.4 C 247,91.3 246.3,91 245.5,91 Z"
   id="path14"
   style="fill:#808080" />
		<path
   class="st2"
   d="m 260.4,99.4 v 0 c -0.9,1.1 -2,1.7 -3.6,1.7 -1.4,0 -2.6,-0.5 -3.4,-1.5 -0.8,-1 -1.2,-2.4 -1.2,-4.2 0,-1.8 0.4,-3.2 1.2,-4.2 0.8,-1 1.9,-1.5 3.4,-1.5 1.5,0 2.7,0.5 3.5,1.6 h 0.1 l -0.1,-0.8 v -0.8 -4.5 h 1.7 v 15.7 h -1.4 z m -3.4,0.3 c 1.1,0 2,-0.3 2.5,-0.9 0.5,-0.6 0.8,-1.6 0.8,-3 v -0.4 c 0,-1.6 -0.3,-2.7 -0.8,-3.4 -0.5,-0.7 -1.4,-1 -2.5,-1 -1,0 -1.7,0.4 -2.3,1.1 -0.5,0.8 -0.8,1.8 -0.8,3.2 0,1.4 0.3,2.5 0.8,3.2 0.6,0.8 1.3,1.2 2.3,1.2 z"
   id="path16"
   style="fill:#808080" />
		<path
   class="st2"
   d="m 265.4,86.8 c 0,-0.4 0.1,-0.7 0.3,-0.8 0.2,-0.2 0.4,-0.3 0.7,-0.3 0.3,0 0.5,0.1 0.7,0.3 0.2,0.2 0.3,0.5 0.3,0.8 0,0.3 -0.1,0.7 -0.3,0.8 -0.2,0.2 -0.4,0.3 -0.7,0.3 -0.3,0 -0.5,-0.1 -0.7,-0.3 -0.2,-0.1 -0.3,-0.4 -0.3,-0.8 z m 1.8,14.1 h -1.7 V 89.8 h 1.7 z"
   id="path18"
   style="fill:#808080" />
		<path
   class="st2"
   d="m 277.5,100.9 -0.3,-1.6 h -0.1 c -0.6,0.7 -1.1,1.2 -1.6,1.4 -0.5,0.2 -1.2,0.4 -2.1,0.4 -1.1,0 -2,-0.3 -2.6,-0.8 -0.6,-0.6 -0.9,-1.4 -0.9,-2.4 0,-2.2 1.8,-3.4 5.4,-3.5 l 1.9,-0.1 v -0.7 c 0,-0.9 -0.2,-1.5 -0.6,-1.9 -0.4,-0.4 -1,-0.6 -1.8,-0.6 -0.9,0 -2,0.3 -3.1,0.8 l -0.5,-1.3 c 0.5,-0.3 1.1,-0.5 1.8,-0.7 0.6,-0.2 1.3,-0.3 2,-0.3 1.3,0 2.3,0.3 2.9,0.9 0.6,0.6 1,1.5 1,2.8 v 7.6 z m -3.7,-1.2 c 1,0 1.9,-0.3 2.5,-0.9 0.6,-0.6 0.9,-1.4 0.9,-2.4 v -1 l -1.7,0.1 c -1.3,0 -2.3,0.3 -2.9,0.6 -0.6,0.4 -0.9,0.9 -0.9,1.7 0,0.6 0.2,1.1 0.6,1.4 0.4,0.3 0.8,0.5 1.5,0.5 z"
   id="path20"
   style="fill:#808080" />
		<path
   class="st2"
   d="m 289.6,100.9 h -1.7 V 86.1 h 8.2 v 1.5 h -6.5 V 93 h 6.1 v 1.5 h -6.1 z"
   id="path22"
   style="fill:#808080" />
		<path
   class="st2"
   d="m 307.8,95.3 c 0,1.8 -0.5,3.2 -1.4,4.2 -0.9,1 -2.2,1.5 -3.8,1.5 -1,0 -1.9,-0.2 -2.6,-0.7 -0.8,-0.5 -1.4,-1.1 -1.8,-2 -0.4,-0.9 -0.6,-1.9 -0.6,-3 0,-1.8 0.4,-3.2 1.4,-4.2 0.9,-1 2.2,-1.5 3.8,-1.5 1.5,0 2.8,0.5 3.7,1.5 0.9,1 1.3,2.5 1.3,4.2 z m -8.4,0 c 0,1.4 0.3,2.5 0.8,3.2 0.6,0.7 1.4,1.1 2.5,1.1 1.1,0 1.9,-0.4 2.5,-1.1 0.6,-0.7 0.9,-1.8 0.9,-3.2 0,-1.4 -0.3,-2.5 -0.9,-3.2 -0.6,-0.7 -1.4,-1.1 -2.5,-1.1 -1.1,0 -1.9,0.4 -2.5,1.1 -0.6,0.7 -0.8,1.8 -0.8,3.2 z"
   id="path24"
   style="fill:#808080" />
		<path
   class="st2"
   d="M 312.3,89.8 V 97 c 0,0.9 0.2,1.6 0.6,2 0.4,0.4 1.1,0.7 1.9,0.7 1.2,0 2,-0.3 2.5,-0.9 0.5,-0.6 0.8,-1.7 0.8,-3.1 v -5.8 h 1.7 V 101 h -1.4 l -0.2,-1.5 h -0.1 c -0.3,0.5 -0.8,1 -1.4,1.3 -0.6,0.3 -1.3,0.4 -2.1,0.4 -1.3,0 -2.4,-0.3 -3,-1 -0.7,-0.6 -1,-1.7 -1,-3.1 v -7.2 z"
   id="path26"
   style="fill:#808080" />
		<path
   class="st2"
   d="m 331,100.9 v -7.2 c 0,-0.9 -0.2,-1.6 -0.6,-2 -0.4,-0.4 -1.1,-0.7 -1.9,-0.7 -1.2,0 -2,0.3 -2.5,0.9 -0.5,0.6 -0.8,1.7 -0.8,3.1 v 5.8 h -1.7 v -11 h 1.4 l 0.3,1.5 h 0.1 c 0.3,-0.5 0.8,-1 1.4,-1.3 0.6,-0.3 1.3,-0.4 2.1,-0.4 1.3,0 2.3,0.3 3,1 0.7,0.6 1,1.7 1,3.1 v 7.2 c -0.1,0 -1.8,0 -1.8,0 z"
   id="path28"
   style="fill:#808080" />
		<path
   class="st2"
   d="m 343.7,99.4 v 0 c -0.9,1.1 -2,1.7 -3.6,1.7 -1.4,0 -2.6,-0.5 -3.4,-1.5 -0.8,-1 -1.2,-2.4 -1.2,-4.2 0,-1.8 0.4,-3.2 1.2,-4.2 0.8,-1 1.9,-1.5 3.4,-1.5 1.5,0 2.7,0.5 3.5,1.6 h 0.1 l -0.1,-0.8 v -0.8 -4.5 h 1.7 v 15.7 h -1.4 z m -3.4,0.3 c 1.1,0 2,-0.3 2.5,-0.9 0.5,-0.6 0.8,-1.6 0.8,-3 v -0.4 c 0,-1.6 -0.3,-2.7 -0.8,-3.4 -0.5,-0.7 -1.4,-1 -2.5,-1 -1,0 -1.7,0.4 -2.3,1.1 -0.5,0.8 -0.8,1.8 -0.8,3.2 0,1.4 0.3,2.5 0.8,3.2 0.5,0.8 1.3,1.2 2.3,1.2 z"
   id="path30"
   style="fill:#808080" />
		<path
   class="st2"
   d="m 355.6,100.9 -0.3,-1.6 h -0.1 c -0.6,0.7 -1.1,1.2 -1.6,1.4 -0.5,0.2 -1.2,0.4 -2.1,0.4 -1.1,0 -2,-0.3 -2.6,-0.8 -0.6,-0.6 -0.9,-1.4 -0.9,-2.4 0,-2.2 1.8,-3.4 5.4,-3.5 l 1.9,-0.1 v -0.7 c 0,-0.9 -0.2,-1.5 -0.6,-1.9 -0.4,-0.4 -1,-0.6 -1.8,-0.6 -0.9,0 -2,0.3 -3.1,0.8 l -0.5,-1.3 c 0.5,-0.3 1.1,-0.5 1.8,-0.7 0.6,-0.2 1.3,-0.3 2,-0.3 1.3,0 2.3,0.3 2.9,0.9 0.6,0.6 1,1.5 1,2.8 v 7.6 z m -3.8,-1.2 c 1,0 1.9,-0.3 2.5,-0.9 0.6,-0.6 0.9,-1.4 0.9,-2.4 v -1 l -1.7,0.1 c -1.3,0 -2.3,0.3 -2.9,0.6 -0.6,0.4 -0.9,0.9 -0.9,1.7 0,0.6 0.2,1.1 0.6,1.4 0.3,0.3 0.9,0.5 1.5,0.5 z"
   id="path32"
   style="fill:#808080" />
		<path
   class="st2"
   d="m 363.9,99.7 c 0.3,0 0.6,0 0.9,-0.1 0.3,0 0.5,-0.1 0.7,-0.1 v 1.3 c -0.2,0.1 -0.4,0.2 -0.8,0.2 -0.4,0.1 -0.7,0.1 -1,0.1 -2.1,0 -3.2,-1.1 -3.2,-3.4 v -6.6 h -1.6 v -0.8 l 1.6,-0.7 0.7,-2.4 h 1 v 2.6 h 3.2 v 1.3 h -3.2 v 6.5 c 0,0.7 0.2,1.2 0.5,1.5 0.2,0.4 0.6,0.6 1.2,0.6 z"
   id="path34"
   style="fill:#808080" />
		<path
   class="st2"
   d="m 367.4,86.8 c 0,-0.4 0.1,-0.7 0.3,-0.8 0.2,-0.2 0.4,-0.3 0.7,-0.3 0.3,0 0.5,0.1 0.7,0.3 0.2,0.2 0.3,0.5 0.3,0.8 0,0.3 -0.1,0.7 -0.3,0.8 -0.2,0.2 -0.4,0.3 -0.7,0.3 -0.3,0 -0.5,-0.1 -0.7,-0.3 -0.2,-0.1 -0.3,-0.4 -0.3,-0.8 z m 1.9,14.1 h -1.7 V 89.8 h 1.7 z"
   id="path36"
   style="fill:#808080" />
		<path
   class="st2"
   d="m 382.4,95.3 c 0,1.8 -0.5,3.2 -1.4,4.2 -0.9,1 -2.2,1.5 -3.8,1.5 -1,0 -1.9,-0.2 -2.6,-0.7 -0.8,-0.5 -1.4,-1.1 -1.8,-2 -0.4,-0.9 -0.6,-1.9 -0.6,-3 0,-1.8 0.5,-3.2 1.4,-4.2 0.9,-1 2.2,-1.5 3.8,-1.5 1.5,0 2.8,0.5 3.7,1.5 0.9,1 1.3,2.5 1.3,4.2 z m -8.5,0 c 0,1.4 0.3,2.5 0.8,3.2 0.6,0.7 1.4,1.1 2.5,1.1 1.1,0 1.9,-0.4 2.5,-1.1 0.6,-0.7 0.9,-1.8 0.9,-3.2 0,-1.4 -0.3,-2.5 -0.9,-3.2 -0.6,-0.7 -1.4,-1.1 -2.5,-1.1 -1.1,0 -1.9,0.4 -2.5,1.1 -0.6,0.7 -0.8,1.8 -0.8,3.2 z"
   id="path38"
   style="fill:#808080" />
		<path
   class="st2"
   d="m 392.9,100.9 v -7.2 c 0,-0.9 -0.2,-1.6 -0.6,-2 -0.4,-0.4 -1.1,-0.7 -1.9,-0.7 -1.2,0 -2,0.3 -2.5,0.9 -0.5,0.6 -0.8,1.7 -0.8,3.1 v 5.8 h -1.7 v -11 h 1.4 l 0.3,1.5 h 0.1 c 0.3,-0.5 0.8,-1 1.4,-1.3 0.6,-0.3 1.3,-0.4 2.1,-0.4 1.3,0 2.3,0.3 3,1 0.7,0.7 1,1.7 1,3.1 v 7.2 c -0.2,0 -1.8,0 -1.8,0 z"
   id="path40"
   style="fill:#808080" />
	</g>
	<g
   class="st1"
   id="g53"
   style="display:inline">
		<circle
   id="red_circle"
   class="st3"
   cx="288"
   cy="15"
   r="10.3"
   style="fill:#404040" />
		<path
   class="st3"
   d="m 303.9,20.3 c 4.2,4.2 6.6,9.9 6.6,15.9 0,6 -2.3,11.6 -6.6,15.9 -4.2,4.2 -9.9,6.6 -15.9,6.6 -6,0 -11.6,-2.3 -15.9,-6.6 -4.2,-4.2 -6.6,-9.9 -6.6,-15.9 0,-6 2.3,-11.6 6.6,-15.9 0.4,-0.4 0.8,-0.7 1.2,-1.1 L 267,13 c -0.4,0.4 -0.8,0.7 -1.1,1.1 -2.9,2.9 -5.1,6.2 -6.7,9.9 -1.6,3.9 -2.5,8 -2.5,12.2 0,4.2 0.8,8.3 2.5,12.2 1.6,3.7 3.8,7.1 6.7,9.9 2.9,2.9 6.2,5.1 9.9,6.7 3.9,1.6 8,2.5 12.2,2.5 4.2,0 8.3,-0.8 12.2,-2.5 3.7,-1.6 7.1,-3.8 9.9,-6.7 2.8,-2.9 5.1,-6.2 6.7,-9.9 1.6,-3.9 2.5,-8 2.5,-12.2 0,-4.2 -0.8,-8.3 -2.5,-12.2 -1.6,-3.7 -3.8,-7.1 -6.7,-9.9 -0.4,-0.4 -0.8,-0.7 -1.1,-1.1 l -6.3,6.3 c 0.4,0.3 0.8,0.7 1.2,1 z"
   id="path45"
   style="fill:#404040" />
		<g
   id="g51">
			<path
   class="st3"
   d="m 290.7,54.8 c 9.1,-1.3 16.2,-9.1 16.2,-18.6 0,-5.8 -2.6,-10.9 -6.7,-14.4 l -9.5,9.5 z"
   id="path47"
   style="fill:#404040" />
			<path
   class="st3"
   d="M 285.3,54.8 V 31.3 l -9.5,-9.5 c -4.1,3.5 -6.7,8.6 -6.7,14.4 0.1,9.5 7.1,17.3 16.2,18.6 z"
   id="path49"
   style="fill:#404040" />
		</g>
	</g>
</g>
<g
   id="Layer_2"
   transform="matrix(1.427083,0,0,1.427083,-128.08746,2.1395823)"
   style="stroke-width:0.70073009">
	<g
   id="g94"
   style="stroke-width:0.70073009">
		
		<g
   id="g90"
   style="stroke-width:0.70073009">
			<circle
   class="st4"
   cx="169.89999"
   cy="10"
   r="12.2"
   id="circle84"
   style="fill:#ffffff;stroke-width:0.70073009" />
			<path
   class="st4"
   d="m 194.6,7.3 -6.9,6.9 c 5.6,4.9 9.1,12.1 9.1,20.2 0,14.8 -12,26.9 -26.9,26.9 -14.8,0 -26.9,-12 -26.9,-26.9 0,-8 3.5,-15.2 9.1,-20.2 l -6.9,-6.9 c -7.4,6.7 -12,16.4 -12,27.1 0,20.2 16.4,36.6 36.6,36.6 C 190,71 206.4,54.6 206.4,34.4 206.5,23.7 201.9,14 194.6,7.3 Z"
   id="path86"
   style="fill:#ffffff;stroke-width:0.70073009" />
			<path
   class="st4"
   d="M 167.5,29.5 155.7,17.7 c -4.7,4 -7.7,10 -7.7,16.7 0,11.3 8.5,20.6 19.5,21.8 z m 16.7,-11.8 -11.8,11.8 v 26.7 c 11,-1.2 19.5,-10.5 19.5,-21.8 0,-6.7 -3,-12.6 -7.7,-16.7 z"
   id="path88"
   style="fill:#ffffff;stroke-width:0.70073009" />
		</g>
		<rect
   x="169.10001"
   y="49.200001"
   class="st4"
   width="1.6"
   height="1.1"
   id="rect92"
   style="fill:#ffffff;stroke-width:0.70073009" />
	</g>
</g>
</svg>